# xmcd
#
# Track frame offsets:
#	150
#	17699
#	31518
#	45532
#	63181
#	75533
#	90480
#	105923
#	127967
#	146499
#	160510
#	179044
#	191638
#
# Disc length: 2840 seconds
#
# Revision: 0
# Processed by: cddbd v1.5.2PL0 Copyright (c) Steve Scherf et al.
# Submitted via: EasyCDDAExtractor 8.2.3.1
#
DISCID=920b160d
DTITLE=Steinar Albrigtsen - Alone Too Long
DYEAR=1990
DGENRE=Country
TTITLE0=Not Just Waitin'
TTITLE1=In Rosa's Heart
TTITLE2=Lessons Of Love
TTITLE3=Till The Morning Comes
TTITLE4=Long Gone Cold Desire
TTITLE5=Home At The End Of The Road
TTITLE6=Burning Moonlight
TTITLE7=Alone Too Long
TTITLE8=Born Country
TTITLE9=Richland Woman's Blues
TTITLE10=One Row At The Time
TTITLE11=Your Daddy's Cadillac
TTITLE12=Too Late For Tears
EXTD=
EXTT0=
EXTT1=
EXTT2=
EXTT3=
EXTT4=
EXTT5=
EXTT6=
EXTT7=
EXTT8=
EXTT9=
EXTT10=
EXTT11=
EXTT12=
PLAYORDER=
